<?xml version="1.0" standalone="no"?><!DOCTYPE svg PUBLIC "-//W3C//DTD SVG 1.1//EN" "http://www.w3.org/Graphics/SVG/1.1/DTD/svg11.dtd"><svg t="1520521640020" class="icon" style="" viewBox="0 0 1024 1024" version="1.1" xmlns="http://www.w3.org/2000/svg" p-id="17866" xmlns:xlink="http://www.w3.org/1999/xlink" width="128" height="128"><defs><style type="text/css"></style></defs><path d="M512 225.28c-169.984 0-307.2 128-307.2 286.72 0 51.2 14.336 98.304 38.912 140.288 3.072 5.12 4.096 11.264 2.048 16.384l-28.672 91.136c-5.12 16.384 10.24 30.72 26.624 25.6l90.112-31.744c6.144-2.048 12.288-1.024 17.408 2.048 47.104 27.648 102.4 43.008 161.792 43.008 169.984 0 307.2-128 307.2-286.72C819.2 353.28 681.984 225.28 512 225.28z m147.456 223.232L502.784 605.184c-6.144 6.144-13.312 9.216-21.504 9.216s-15.36-3.072-21.504-9.216l-75.776-75.776c-6.144-6.144-6.144-15.36 0-21.504l21.504-21.504c6.144-6.144 15.36-6.144 21.504 0l54.272 54.272 135.168-135.168c6.144-6.144 15.36-6.144 21.504 0l21.504 21.504c6.144 6.144 6.144 16.384 0 21.504z" p-id="17867" fill="#13227a"></path></svg>