<?xml version="1.0" encoding="utf-8"?>
<!-- Generator: Adobe Illustrator 19.0.0, SVG Export Plug-In . SVG Version: 6.00 Build 0)  -->
<svg version="1.0" id="图层_1" xmlns="http://www.w3.org/2000/svg" xmlns:xlink="http://www.w3.org/1999/xlink" x="0px" y="0px"
	 viewBox="0 0 362.8 362.8" style="enable-background:new 0 0 362.8 362.8;" xml:space="preserve">
<g id="XMLID_16_">
	<path id="XMLID_114_" style="fill:#6B6B6B;stroke:#534F4E;stroke-width:3;stroke-miterlimit:10;" d="M263.7,133.7
		c-30.3-72-160.5-69.5-195.1-1.3C2.8,261.7,289.7,195.5,263.7,133.7C261.6,128.7,266,139.2,263.7,133.7z"/>
	<g id="XMLID_15_">
		<g id="XMLID_122_">
			<g id="XMLID_25_">
				<path id="XMLID_26_" style="fill:#6B6B6B;" d="M352.7,176c-1.1-13.6-6.7-27.7-18.1-35.1c-10.7-6.9-24.5-6.9-37.1-4.9
					c-5.7,0.9-11.5,2.2-16.3,5.3c-10.2,6.5-16.9,31.2-16.9,31.2c-6,12.6-16.8,22.9-29.7,28.4c-11.4,4.9-24,5.9-36.4,7
					c-31.8,2.6-63.7,5.3-95.7,4.2c-10.4-0.3-21.7-1.4-29.3-8.6c-6.8-6.4-9.3-16.7-16.7-22.4c-1.5-1.1-37.3-3-40.4-1
					c-6.5,4.1-7.9,13.7-4.1,20.4c3.8,6.6,11.7,10.2,19.3,10.6c-5,10-6.4,22.8,0.1,32c6.4,9.2,22.1,11.3,28.6,2.2
					c1.9-2.7,9.8-13.9,13-13.1c4.7,1.3,5.2,7.6,7.1,12c2.4,5.5,8.5,9.1,14.4,8.5s11.1-5.7,11.8-11.6c0.6-5.4-1.5-12.7,3.3-15.2
					c2.2-1.2,4.9-0.5,7.4,0c26.6,5.8,54.6-2.2,81.4,2.3c1.8,0.3,11.8,16.2,15.2,20c3.4,3.8,8.7,6.4,13.6,5
					c6.4-1.8,9.3-9.1,11.2-15.4c4,4.5,8.1,9,13.4,11.9c5.3,2.8,12.1,3.6,17.2,0.5c6.1-3.7,8-11.6,8.3-18.7
					c0.2-5.8-0.3-11.6-1.5-17.3c-0.8-3.6-1.8-7.3-0.7-10.8c1.6-4.9,7.3-7.5,12.5-7.5s10.1,2,15.1,3.6c9.8,3,20.3,4.1,30.5,3.3
					c3.8-0.3,7.6-0.9,10.8-2.9C351.8,195,353.4,184.8,352.7,176z"/>
			</g>
			<g id="XMLID_21_">
				<path id="XMLID_22_" style="fill:none;stroke:#534F4E;stroke-width:3;stroke-miterlimit:10;" d="M352.7,176
					c-1.1-13.6-6.7-27.7-18.1-35.1c-10.7-6.9-24.5-6.9-37.1-4.9c-5.7,0.9-11.5,2.2-16.3,5.3c-10.2,6.5-16.9,31.2-16.9,31.2
					c-6,12.6-16.8,22.9-29.7,28.4c-11.4,4.9-24,5.9-36.4,7c-31.8,2.6-63.7,5.3-95.7,4.2c-10.4-0.3-21.7-1.4-29.3-8.6
					c-6.8-6.4-9.3-16.7-16.7-22.4c-1.5-1.1-37.3-3-40.4-1c-6.5,4.1-7.9,13.7-4.1,20.4c3.8,6.6,11.7,10.2,19.3,10.6
					c-5,10-6.4,22.8,0.1,32c6.4,9.2,22.1,11.3,28.6,2.2c1.9-2.7,9.8-13.9,13-13.1c4.7,1.3,5.2,7.6,7.1,12c2.4,5.5,8.5,9.1,14.4,8.5
					s11.1-5.7,11.8-11.6c0.6-5.4-1.5-12.7,3.3-15.2c2.2-1.2,4.9-0.5,7.4,0c26.6,5.8,54.6-2.2,81.4,2.3c1.8,0.3,11.8,16.2,15.2,20
					c3.4,3.8,8.7,6.4,13.6,5c6.4-1.8,9.3-9.1,11.2-15.4c4,4.5,8.1,9,13.4,11.9c5.3,2.8,12.1,3.6,17.2,0.5c6.1-3.7,8-11.6,8.3-18.7
					c0.2-5.8-0.3-11.6-1.5-17.3c-0.8-3.6-1.8-7.3-0.7-10.8c1.6-4.9,7.3-7.5,12.5-7.5s10.1,2,15.1,3.6c9.8,3,20.3,4.1,30.5,3.3
					c3.8-0.3,7.6-0.9,10.8-2.9C351.8,195,353.4,184.8,352.7,176z"/>
			</g>
		</g>
		<g id="XMLID_109_">
			<g id="XMLID_40_">
				<g id="XMLID_41_">
					<circle id="XMLID_42_" style="fill:#FFFFFF;" cx="326" cy="162.1" r="8"/>
				</g>
			</g>
		</g>
	</g>
</g>
</svg>
