<?xml version="1.0" encoding="utf-8"?>
<!-- Generator: Adobe Illustrator 19.0.0, SVG Export Plug-In . SVG Version: 6.00 Build 0)  -->
<svg version="1.1" id="图层_1" xmlns="http://www.w3.org/2000/svg" xmlns:xlink="http://www.w3.org/1999/xlink" x="0px" y="0px"
	 viewBox="112 230.7 120 56" style="enable-background:new 112 230.7 120 56;" xml:space="preserve">
<style type="text/css">
	.st0{fill:#FF4D4D;stroke:#CC3636;}
	.st1{display:none;}
</style>
<path class="st0" d="M112,234.7c0-2.2,1.8-4,4-4h8c2,0,3,1,4,2l4,4c1,1,2,2,4,2h12c2,0,3-1,4-2l4-4c1-1,2-2,4-2h68c2.2,0,4,1.8,4,4
	v40c0,2.2-1.8,4-4,4h-68c-2,0-3,1-4,2l-4,4c-1,1-2,2-4,2h-12c-2,0-3-1-4-2l-4-4c-1-1-2-2-4-2h-8c-2.2,0-4-1.8-4-4V234.7z"/>
<path class="st1" d="M112,230.7"/>
</svg>
