<?xml version="1.0" encoding="utf-8"?>
<!-- Generator: Adobe Illustrator 19.0.0, SVG Export Plug-In . SVG Version: 6.00 Build 0)  -->
<svg version="1.0" id="图层_1" xmlns="http://www.w3.org/2000/svg" xmlns:xlink="http://www.w3.org/1999/xlink" x="0px" y="0px"
	 viewBox="0 0 362.8 362.8" style="enable-background:new 0 0 362.8 362.8;" xml:space="preserve">
<g id="XMLID_109_">
	<g id="XMLID_49_">
		<g id="XMLID_50_">
			<circle id="XMLID_51_" style="fill:#FFFFFF;" cx="329.5" cy="176.5" r="8.2"/>
		</g>
	</g>
</g>
<g id="XMLID_13_">
	<path id="XMLID_108_" style="fill:#6B6B6B;stroke:#534F4E;stroke-width:3;stroke-miterlimit:10;" d="M254.5,183.9
		c-2,2-16.5,2-20.3-1.2c-12.1-10.1-22.9-22.3-37.3-28.6c-58.1-25.4-111,57.6-105.5,72.2c-10,2.4-58.5,22.1-61.6,17
		c-6.5-10.5-40,50.9-2.4,37.3c10.4-3.7,60.2-14.1,77.3-18.4c4.3-1.1,8.8-2.2,12.4-5c4.8-3.8,18.5-29.2,23.7-26
		c47.8,29.3,111.9,12.7,113.9,14c4.3,2.9,11.3,26.8,17.5,30c6.2,3.1,13.4,4.1,20.4,4.2c8.7,0.1,18.2-0.7,25.3,4.2
		c5.2,3.5,8.3,9.6,13.9,12.5c8.2,4.1,19.7-2.1,20.7-11.2c0.9-7.8-26.4-24.4-33.8-27c-14.2-5-27.1-14.5-35.2-27.2
		c6.2-4.9,17.5-16.1,16.8-21.9c-0.6-5.5,4.5-10.2,9.8-11.7s28-5.1,31.7-9.7c3.7-4.6,4.9-11.3,2-16.4c-3.4-6.1-11.2-8.3-15.5-13.9
		c-2.5-3.3-3.6-7.5-5.4-11.3c-5.4-11.3-18.5-18.5-30.9-17c-11.6,1.4-21.8,10.3-25.2,21.4c-0.3,0.9-0.5,1.7-0.7,2.6
		C266.1,152.9,262.2,176.3,254.5,183.9z"/>
	<circle id="XMLID_107_" style="fill:#FFFFFF;" cx="306.8" cy="152.2" r="7.8"/>
	<path id="XMLID_11_" style="fill:#6B6B6B;stroke:#534F4E;stroke-width:3;stroke-miterlimit:10;" d="M93.1,190.8
		c-0.9,6.8-7.9,23.1-9.6,24.3s-8.1-1.8-8.6-3.2c-12.7-30.9,19.5-27.5,18.3-21.4L93.1,190.8z"/>
</g>
<g id="XMLID_4_">
	<path id="XMLID_12_" style="fill:#6B6B6B;stroke:#534F4E;stroke-width:3;stroke-miterlimit:10;" d="M271.2,138.4
		c-29.9,1.8-22.6-87.7-20.1-97C251.1,41.3,307.9,136.2,271.2,138.4z"/>
	<path id="XMLID_10_" style="fill:#6B6B6B;stroke:#534F4E;stroke-width:3;stroke-miterlimit:10;" d="M194.4,58.6
		c3.6,11.6,47.5,103.9,71.7,87.4c28-19-54.6-78.8-70.3-86.7L194.4,58.6z"/>
</g>
</svg>
