<?xml version="1.0" encoding="utf-8"?>
<!-- Generator: Adobe Illustrator 19.0.0, SVG Export Plug-In . SVG Version: 6.00 Build 0)  -->
<svg version="1.1" id="图层_1" xmlns="http://www.w3.org/2000/svg" xmlns:xlink="http://www.w3.org/1999/xlink" x="0px" y="0px"
	 viewBox="0 0 256 64" style="enable-background:new 0 0 256 64;" xml:space="preserve">
<style type="text/css">
	.st0{fill:#FFFFFF;}
</style>
<g id="XMLID_1_">
	<path id="XMLID_21_" class="st0" d="M186,38.9h-10.3l4.4,14.7c0,0-14.2,0-14.2,0l8.5-18.6h16v-8.6H176v-8.9h14.4V8.9H176v-5h-10.9
		v5h-13.6v8.6l13.6,0l0,8.9h-14.7V35h11.8L152,57.5l0,0c-0.2,0.4-0.3,0.8-0.3,1.2c0,0.8,0.3,1.5,0.8,2c0.6,0.5,1.3,0.8,2.1,0.8
		c0.1,0,0.1,0,0.2,0h37L186,38.9z"/>
	<path id="XMLID_16_" class="st0" d="M254.5,13.9V6.3h-8.8V3.9h-9.9v2.4h-20.2V3.9h-9.9v2.4h-9.1v7.5l9.1,0v3.4h-8.3v11.1h0v0h4.2
		l0,17h-4v16.3h55.6l0.1-8.1c0-5.5-2.7-8.3-8-8.3h-33.8l0-11.7l28.2,0l0,2.7h-26.2v6.6h36.1l0.1-9.2c0-3-0.8-4.8-2.4-5.6h6.2v-3.4
		c0-4.9-1.7-7.4-5-7.4h-2.8v-3.4H254.5z M215.6,13.9l20.2,0l0,3.5h-20.2V13.9z M243.4,51.9l0,3.2h-35.7v-3.1L243.4,51.9z M243.7,27
		L243.7,27L243.7,27l-32.1,0h-4.3v-2.7l36.3,0V27z"/>
	<path id="XMLID_15_" class="st0" d="M16.8,3.9H1.5l0,58.2h9.1l0-50.6h3.1v37.4L11.9,49v8.6c8,0.7,12-2.5,12-9.8V29.9h-6.1
		c4-2.3,6.1-5.5,6.1-9.7v-9C23.9,6.3,21.5,3.8,16.8,3.9z"/>
	<path id="XMLID_12_" class="st0" d="M140,1.9c-4.3,0-7.8,3.5-7.8,7.8c0,4.3,3.5,7.8,7.8,7.8c4.3,0,7.8-3.5,7.8-7.8
		C147.8,5.4,144.3,1.9,140,1.9z M140,12.3c-1.4,0-2.6-1.2-2.6-2.6c0-1.4,1.2-2.6,2.6-2.6c1.4,0,2.6,1.2,2.6,2.6
		C142.6,11.2,141.4,12.3,140,12.3z"/>
	<path id="XMLID_11_" class="st0" d="M137,20.3c0.9,4.6,1.3,9.3,1.3,14.1c0,9.5-1.8,18.6-5,27h9.6c2.9-8.5,4.4-17.6,4.4-27
		c0-4.8-0.4-9.5-1.2-14.1H137z"/>
	<path id="XMLID_10_" class="st0" d="M130.4,61.4c1-2.6,1.9-5.4,2.6-8.1l-17.1,0V3.8h-9.9v49c0,5.7,2.4,8.5,7.2,8.6L130.4,61.4z"/>
	<path id="XMLID_9_" class="st0" d="M89.9,3.8h-9.9l-0.1,26.6c0,1.8-0.1,3.6-0.2,5.5c0,0.1,0,0.1,0,0.2l0,0.1
		c-0.7,3.7-2.4,7.1-4.8,9.8c-0.2,0.3-0.5,0.6-0.8,0.8l-0.1,0.1c-1.4,1.4-3.1,2.6-5,3.3v10.4c6-1.4,11.2-5,14.7-9.8l0.2-0.2
		c2.5-3.7,4.5-8,5.8-12.8c0.3-2.6,0.5-5.3,0.5-8L89.9,3.8z"/>
	<g id="XMLID_4_">
		<path id="XMLID_8_" class="st0" d="M60.2,57V12.1c0.1-5.5-2.5-8.2-7.8-8.2H26.9v8.1h20.7c1.9,0,2.8,1.1,2.8,3.4v46.7h4.8
			C58.5,62.1,60.1,60.4,60.2,57z"/>
		<path id="XMLID_5_" class="st0" d="M42.2,14.6h-7.5c-4.6,0-6.9,2.5-6.9,7.4v37.9h20.7V21.2C48.5,16.8,46.4,14.6,42.2,14.6z
			 M40.8,53.3h-5.3V21.9h2.6c1.8,0,2.7,1,2.7,3.1V53.3z"/>
	</g>
</g>
</svg>
