<?xml version="1.0" encoding="utf-8"?>
<!-- Generator: Adobe Illustrator 19.0.0, SVG Export Plug-In . SVG Version: 6.00 Build 0)  -->
<svg version="1.1" id="图层_1" xmlns="http://www.w3.org/2000/svg" xmlns:xlink="http://www.w3.org/1999/xlink" x="0px" y="0px"
	 viewBox="-351 249 256 64" style="enable-background:new -351 249 256 64;" xml:space="preserve">
<g id="Block">
	<path id="block-shadow" style="fill:#CF8B17;" d="M-350,259.3v41.2c0,2.3,1.8,4.1,4.1,4.1h7.3c0.6,0,1.2,0.3,1.6,0.7l4.3,5
		c0.8,0.9,1.9,1.4,3.1,1.4h16.8c1.2,0,2.3-0.5,3.1-1.4l4.3-5c0.4-0.5,1-0.7,1.6-0.7h7.3c2.3,0,4.1-1.8,4.1-4.1v-42.1
		c0-2.3-1.8-4.1-4.1-4.1c0,0,0,0-0.1,0l-49.4,0.9C-348.2,255.3-350,257.1-350,259.3z"/>
	<path id="block" style="fill:#FFAB19;" d="M-350,254.3v43.2c0,2.3,1.8,4.1,4.1,4.1h8.2c0.6,0,1.2,0.3,1.6,0.8l3.3,4.3
		c0.8,1,2,1.6,3.3,1.6h16.5c1.3,0,2.5-0.6,3.3-1.6l3.3-4.3c0.4-0.5,1-0.8,1.6-0.8h8.2c2.3,0,4.1-1.8,4.1-4.1v-43.2
		c0-2.3-1.8-4.1-4.1-4.1h-49.4C-348.2,250.1-350,252-350,254.3z"/>
	<path id="block-outline" style="fill:#FFFFFF;fill-opacity:0.2;" d="M-347.9,254.3v43.2c0,1.1,0.9,2.1,2.1,2.1h8.2
		c1.3,0,2.5,0.6,3.3,1.6l3.3,4.3c0.4,0.5,1,0.8,1.6,0.8h16.5c0.6,0,1.2-0.3,1.6-0.8l3.3-4.3c0.8-1,2-1.6,3.3-1.6h8.2
		c1.1,0,2.1-0.9,2.1-2.1v-43.2c0-1.1-0.9-2.1-2.1-2.1h-49.4C-347,252.2-347.9,253.1-347.9,254.3z M-350,254.3c0-2.3,1.8-4.1,4.1-4.1
		h49.4c2.3,0,4.1,1.8,4.1,4.1v43.2c0,2.3-1.8,4.1-4.1,4.1h-8.2c-0.6,0-1.2,0.3-1.6,0.8l-3.3,4.3c-0.8,1-2,1.6-3.3,1.6h-16.5
		c-1.3,0-2.5-0.6-3.3-1.6l-3.3-4.3c-0.4-0.5-1-0.8-1.6-0.8h-8.2c-2.3,0-4.1-1.8-4.1-4.1V254.3z"/>
</g>
<g>
	<path style="fill:#FFFFFF;" d="M-279.1,269.6h5.4v-4.7c-1.5,0.2-2.9,0.3-4.4,0.5c-0.1-1.8-0.3-3.8-0.7-5.8c4.7-0.4,9.1-1,13.4-1.8
		l1.1,5.6c-1.4,0.3-2.8,0.5-4.1,0.7v5.5h3.6v5.4h-3.6v3.2l2.1-1.2c0.7,1.1,2,3.3,3.7,6.4l-4.1,2.3c-0.5-1.3-1.1-2.6-1.7-4v19.5h-5.3
		v-17.1c-0.9,3.3-2,6.4-3.4,9.4c-0.5-2.6-1.3-5.4-2.3-8.4c1.7-2.9,3.2-6.3,4.6-10.2h-4.4V269.6z M-239,273.6
		c1.2,0.6,2.7,1.2,4.6,1.8c-0.3,2.1-0.8,3.7-1.3,4.7c-0.8,1.9-2.4,2.9-4.8,2.9h-16.9c-3.4,0-5.1-1.5-5.1-4.4V273h0.9
		c-0.8-1.1-1.7-2.1-2.5-3.1c3-1.4,5.1-2.8,6.4-4.1h-5.4v-4.3h7.5c0.2-1.2,0.4-2.7,0.4-4.4h5.2c0,1.7-0.2,3.1-0.4,4.4h6.2
		c-0.7-0.7-1.5-1.4-2.4-2.2l3-2.6c1.6,1.2,3.1,2.5,4.5,3.8l-1,1h5v4.3h-3c1,0.5,2.2,1,3.8,1.7c-0.4,3.5-2.2,5.3-5.5,5.3h-0.5
		l0.9,3.6c-5,0.6-11,1.1-17.9,1.4c0.2,0.9,0.8,1.3,1.9,1.3h13.6c1.1,0,1.8-0.5,2.1-1.6C-239.5,276.6-239.2,275.3-239,273.6z
		 M-261.6,284.3h24.3v17h-5.8V300h-12.8v1.4h-5.8V284.3z M-258.7,273h1.3v1.2c7-0.4,12.6-0.9,17-1.5h-4.9c-3.4,0-5.1-1.3-5.1-3.9
		v-3.1h-1.3C-252.9,268.3-255.3,270.7-258.7,273z M-243.1,288.3h-12.8v2h12.8V288.3z M-255.9,296h12.8v-2h-12.8V296z M-243.8,268.8
		h2.5c1.4,0,2.2-1,2.4-3h-6.5v1.6C-245.4,268.3-244.9,268.8-243.8,268.8z"/>
	<path style="fill:#FFFFFF;" d="M-231.5,266.6h17.4V257h6.5v9.6h17.6v6h-16c4.4,7.5,10.3,13.3,17.7,17.3c-2,2-3.7,3.9-5.2,5.7
		c-5.7-4.1-10.4-9.4-14.1-15.7v21.1h-6.5v-21.4c-3.5,6.2-8.3,11.7-14.5,16.4c-1.5-2-3.1-3.8-4.7-5.5c7.1-4.5,12.8-10.5,17.1-17.8
		h-15.3V266.6z"/>
	<path style="fill:#FFFFFF;" d="M-186.5,267h4.7v-8.1h6.3v8.1h5.9v-9.7h6.2v9.7h8.8v-9.8h6.2v9.8h5.5v5.8h-5.5v15.4h-21.3v-15.4
		h-5.9V294h31.9v5.8h-38.2v-27h-4.7V267z M-163.3,282.5h8.8v-9.7h-8.8V282.5z"/>
	<path style="fill:#FFFFFF;" d="M-114,286h2c-2.7-1.7-4.9-3.5-6.6-5.5c-1.7,1.9-4.1,3.7-7,5.5h2.5c0.1,4.8-0.6,8.2-2.2,10.1
		s-4.2,3.7-7.8,5.3c-1.5-2-2.9-3.5-4.1-4.6c3.8-1.7,6.1-3.1,6.9-4.2c0.8-1.1,1.2-2.7,1.3-4.8c-2.6,1.3-5.5,2.5-8.8,3.8
		c-0.9-1.8-1.9-3.6-3.2-5.5c6.2-1.6,11.2-3.5,14.8-5.8h-10.7v-21.4h36.6v21.4h-11.1c4,2.5,9,4.3,15.2,5.4c-1,1.7-2.1,3.6-3.2,5.9
		c-3.2-1-6.1-2.1-8.6-3.3v13h-6.1V286z M-130.7,267.1h9.2v-3.4h-9.2V267.1z M-130.7,275.4h9.2V272h-9.2V275.4z M-106.2,263.7h-9.2
		v3.4h9.2V263.7z M-106.2,275.4V272h-9.2v3.4H-106.2z"/>
</g>
<g>
	<g>
		<path id="XMLID_38_" style="fill:#FFFFFF;stroke:#FFFFFF;" d="M-335,258.3c2.9,0,5.6,1.4,7.5,3.6c1.9,2.2,3.1,5.3,3.1,8.7
			s-1.2,6.5-3.1,8.7c-1.9,2.2-4.6,3.6-7.5,3.6c-2.9,0-5.6-1.4-7.5-3.6c-1.9-2.2-3.1-5.3-3.1-8.7s1.2-6.5,3.1-8.7
			C-340.6,259.6-337.9,258.3-335,258.3z"/>
		<path id="XMLID_37_" style="stroke:#FFFFFF;" d="M-339.9,264.2c1.6,0,3,0.7,4.1,1.9c1,1.2,1.7,2.8,1.7,4.5s-0.6,3.4-1.7,4.5
			c-1,1.2-2.5,1.9-4.1,1.9s-3-0.7-4.1-1.9c-1-1.2-1.7-2.8-1.7-4.5s0.6-3.4,1.7-4.5C-342.9,264.9-341.4,264.2-339.9,264.2z"/>
	</g>
	<g>
		<path id="XMLID_35_" style="fill:#FFFFFF;stroke:#FFFFFF;" d="M-307.4,258.3c2.9,0,5.6,1.4,7.5,3.6c1.9,2.2,3.1,5.3,3.1,8.7
			s-1.2,6.5-3.1,8.7c-1.9,2.2-4.6,3.6-7.5,3.6c-2.9,0-5.6-1.4-7.5-3.6c-1.9-2.2-3.1-5.3-3.1-8.7s1.2-6.5,3.1-8.7
			C-313,259.6-310.3,258.3-307.4,258.3z"/>
		<path id="XMLID_34_" style="stroke:#FFFFFF;" d="M-312.2,264.2c1.6,0,3,0.7,4.1,1.9c1,1.2,1.7,2.8,1.7,4.5s-0.6,3.4-1.7,4.5
			c-1,1.2-2.5,1.9-4.1,1.9s-3-0.7-4.1-1.9c-1-1.2-1.7-2.8-1.7-4.5s0.6-3.4,1.7-4.5C-315.2,264.9-313.8,264.2-312.2,264.2z"/>
	</g>
</g>
</svg>
