<?xml version="1.0" encoding="utf-8"?>
<!-- Generator: Adobe Illustrator 19.0.0, SVG Export Plug-In . SVG Version: 6.00 Build 0)  -->
<svg version="1.1" id="图层_1" xmlns="http://www.w3.org/2000/svg" xmlns:xlink="http://www.w3.org/1999/xlink" x="0px" y="0px"
	 viewBox="-214.9 356.9 128 128" style="enable-background:new -214.9 356.9 128 128;" xml:space="preserve">
<style type="text/css">
	.st0{fill:#515151;}
</style>
<path class="st0" d="M-159.3,425.1v-8.4c0-0.6-0.2-1.1-0.6-1.5s-0.9-0.6-1.5-0.6H-174V402c0-0.6-0.2-1.1-0.6-1.5
	c-0.4-0.4-0.9-0.6-1.5-0.6h-8.4c-0.6,0-1.1,0.2-1.5,0.6c-0.4,0.4-0.6,0.9-0.6,1.5v12.6h-12.6c-0.6,0-1.1,0.2-1.5,0.6
	c-0.4,0.4-0.6,0.9-0.6,1.5v8.4c0,0.6,0.2,1.1,0.6,1.5c0.4,0.4,0.9,0.6,1.5,0.6h12.6v12.6c0,0.6,0.2,1.1,0.6,1.5s0.9,0.6,1.5,0.6h8.4
	c0.6,0,1.1-0.2,1.5-0.6c0.4-0.4,0.6-0.9,0.6-1.5v-12.6h12.6c0.6,0,1.1-0.2,1.5-0.6C-159.5,426.2-159.3,425.7-159.3,425.1z
	 M-121.4,429.3c0-2.3-0.8-4.3-2.5-5.9c-1.6-1.6-3.6-2.5-5.9-2.5c-2.3,0-4.3,0.8-5.9,2.5c-1.6,1.6-2.5,3.6-2.5,5.9s0.8,4.3,2.5,5.9
	c1.6,1.6,3.6,2.5,5.9,2.5c2.3,0,4.3-0.8,5.9-2.5C-122.2,433.6-121.4,431.6-121.4,429.3z M-104.6,412.5c0-2.3-0.8-4.3-2.5-5.9
	c-1.6-1.6-3.6-2.5-5.9-2.5s-4.3,0.8-5.9,2.5c-1.6,1.6-2.5,3.6-2.5,5.9c0,2.3,0.8,4.3,2.5,5.9c1.6,1.6,3.6,2.5,5.9,2.5
	c2.3,0,4.3-0.8,5.9-2.5C-105.4,416.8-104.6,414.8-104.6,412.5z M-87.8,420.9c0,9.3-3.3,17.2-9.9,23.8c-6.6,6.6-14.5,9.9-23.8,9.9
	c-8.4,0-15.8-2.8-22.2-8.4h-14.5c-6.4,5.6-13.8,8.4-22.2,8.4c-9.3,0-17.2-3.3-23.8-9.9c-6.6-6.6-9.9-14.5-9.9-23.8
	c0-9.3,3.3-17.2,9.9-23.8c6.6-6.6,14.5-9.9,23.8-9.9h58.9c9.3,0,17.2,3.3,23.8,9.9C-91.1,403.7-87.8,411.6-87.8,420.9z"/>
</svg>
