<?xml version="1.0" encoding="utf-8"?>
<!-- Generator: Adobe Illustrator 19.0.0, SVG Export Plug-In . SVG Version: 6.00 Build 0)  -->
<svg version="1.1" id="图层_1" xmlns="http://www.w3.org/2000/svg" xmlns:xlink="http://www.w3.org/1999/xlink" x="0px" y="0px"
	 viewBox="-233 356.9 128 128" style="enable-background:new -233 356.9 128 128;" xml:space="preserve">
<style type="text/css">
	.st0{fill:#5D5D5D;}
</style>
<g id="XMLID_10_">
	<path id="XMLID_24_" class="st0" d="M-207.4,464.7c-0.4,0-1,0-1.5-0.1c-14-1.2-23.3-21.8-21.2-46.9c2-24.8,13.4-42.9,27-42.9
		c0.5,0,0.9,0,1.4,0.1c6.4,0.5,10.8,5.6,13.9,10c1.6,2.2,1.1,5.4-1.1,7c-0.9,0.6-1.9,1-2.9,1c-1.6,0-3.1-0.8-4.1-2.1
		c-2.7-3.8-4.8-5.6-6.7-5.8c-0.1,0-0.2,0-0.3,0c-6.8,0-15.6,13.8-17.3,33.7c-1.6,19.9,5.2,35.5,12.2,36.1c0.2,0,0.4,0,0.6,0
		c5.9,0,11.7-7.9,14.9-20.2c0.6-2.3,2.5-3.8,4.9-3.8h37.5c2.2,0,4.2,1.5,4.9,3.6c3.2,12.4,9.2,20.3,15.2,20.3c0.2,0,0.4,0,0.6,0
		c3.3-0.4,6.5-4,8.8-9.9c2.8-7.2,3.7-16.6,2.6-26.4c-1-9.9-3.8-18.9-8-25.4c-3.2-5.1-6.8-8-10-8c-0.2,0-0.4,0-0.5,0
		c-2,0.2-4.5,2.2-6.8,5.7c-0.8,1.3-2.4,2.1-4.1,2.1H-177c-2.8,0-5-2.2-5-5c0-2.8,2.2-5,5-5h27.1c3.9-4.8,8-7.4,12.4-7.8
		c0.5-0.1,1-0.1,1.5-0.1c13.4,0,25.4,18.2,27.8,42.4c1.1,11.5,0,22.5-3.3,31c-3.7,9.7-9.8,15.5-17,16.2c-0.5,0.1-1.1,0.1-1.6,0.1
		c-9.9,0-18.8-8.9-23.8-23.9h-30C-188.6,455.8-197.4,464.7-207.4,464.7z"/>
	<path id="XMLID_22_" class="st0" d="M-193,411.8h-4v-4c0-2.2-1.8-4-4-4s-4,1.8-4,4v4h-4c-2.2,0-4,1.8-4,4c0,2.2,1.8,4,4,4h4v4
		c0,2.2,1.8,4,4,4s4-1.8,4-4v-4h4c2.2,0,4-1.8,4-4C-189,413.6-190.8,411.8-193,411.8z"/>
	<path id="XMLID_21_" class="st0" d="M-141,403.8c0,4.4,3.6,8,8,8s8-3.6,8-8s-3.6-8-8-8S-141,399.4-141,403.8z"/>
	<path id="XMLID_20_" class="st0" d="M-157,419.8c0,4.4,3.6,8,8,8s8-3.6,8-8s-3.6-8-8-8S-157,415.4-157,419.8z"/>
</g>
</svg>
