<?xml version="1.0" encoding="utf-8"?>
<!-- Generator: Adobe Illustrator 22.1.0, SVG Export Plug-In . SVG Version: 6.00 Build 0)  -->
<svg version="1.1" id="图层_1" xmlns="http://www.w3.org/2000/svg" xmlns:xlink="http://www.w3.org/1999/xlink" x="0px" y="0px"
	 viewBox="0 0 128 128" style="enable-background:new 0 0 128 128;" xml:space="preserve">
<g>
	<g>
		<defs>
			<rect id="SVGID_1_" width="110" height="110"/>
		</defs>
		<clipPath id="SVGID_2_">
			<use xlink:href="#SVGID_1_"  style="overflow:visible;"/>
		</clipPath>
		<path style="clip-path:url(#SVGID_2_);fill:#FFFFFF;" d="M71,12.7L97.3,39L39.6,96.5L13.2,70.2L71,12.7z M81.6,2.4L108,28.6
			l-7.9,7.8L73.8,10.2L81.6,2.4z M81.6,2.4"/>
		<path style="clip-path:url(#SVGID_2_);fill:#FFFFFF;" d="M10.7,73.1L37,99.3L0,109.7L10.7,73.1z M91.7,2L108,18.3
			c2.8,2.8,2.5,7.2-0.3,10c-2.8,2.8-7.5,3.1-10,0.3L81.3,12.4c-2.8-2.5-2.8-7.2,0.3-10C84.5-0.5,88.9-0.8,91.7,2L91.7,2z M91.7,2"/>
	</g>
</g>
<circle style="fill:#FFFFFF;" cx="116" cy="116" r="12"/>
<circle style="fill:#FFFFFF;" cx="78" cy="116" r="12"/>
<circle style="fill:#FFFFFF;" cx="40" cy="116" r="12"/>
</svg>
