<?xml version="1.0" encoding="utf-8"?>
<!-- Generator: Adobe Illustrator 22.1.0, SVG Export Plug-In . SVG Version: 6.00 Build 0)  -->
<svg version="1.1" id="图层_1" xmlns="http://www.w3.org/2000/svg" xmlns:xlink="http://www.w3.org/1999/xlink" x="0px" y="0px"
	 viewBox="0 0 128 128" style="enable-background:new 0 0 128 128;" xml:space="preserve">
<g>
	<g>
		<defs>
			<rect id="SVGID_1_" x="0" y="0" width="128" height="128"/>
		</defs>
		<clipPath id="SVGID_2_">
			<use xlink:href="#SVGID_1_"  style="overflow:visible;"/>
		</clipPath>
		<path style="clip-path:url(#SVGID_2_);fill:#FFFFFF;" d="M82.6,14.8l30.7,30.6l-67.2,67L15.3,81.7L82.6,14.8z M95,2.7l30.7,30.6
			l-9.1,9.1L85.9,11.8L95,2.7z M95,2.7"/>
		<path style="clip-path:url(#SVGID_2_);fill:#FFFFFF;" d="M12.4,85l30.7,30.6L0,127.6L12.4,85z M106.7,2.4l19,18.9
			c3.3,3.3,2.9,8.4-0.4,11.6c-3.3,3.3-8.8,3.6-11.7,0.4l-19-18.9C91.3,11.5,91.3,6,95,2.7C98.3-0.5,103.4-0.9,106.7,2.4L106.7,2.4z
			 M106.7,2.4"/>
	</g>
</g>
</svg>
