<?xml version="1.0" standalone="no"?><!DOCTYPE svg PUBLIC "-//W3C//DTD SVG 1.1//EN" "http://www.w3.org/Graphics/SVG/1.1/DTD/svg11.dtd"><svg t="1520512312239" class="icon" style="" viewBox="0 0 1024 1024" version="1.1" xmlns="http://www.w3.org/2000/svg" p-id="6996" xmlns:xlink="http://www.w3.org/1999/xlink" width="128" height="128"><defs><style type="text/css"></style></defs><path d="M526.797517 917.28523c-55.335072 0-100.329954-44.593322-100.329954-99.386287 0-56.27874 44.051215-100.329954 100.329954-100.329954 54.813043 0 99.386287 44.974804 99.386287 100.309876 0 53.889453-45.577146 99.386287-99.386287 99.386287M472.647049 175.763142h105.369542c31.582753 0 36.22078 18.451717 36.22078 29.474559l-0.20078 9.537068-0.803122 11.022843-21.624046 386.020352c-3.112096 28.932452-15.982118 34.634615-37.224682 34.634615h-56.118115c-21.242564 0-34.17282-5.702163-37.284916-35.357424L439.337585 225.898002l-0.662575-11.163389-0.401561-9.537068c0-11.022843 4.517558-29.474559 34.3736-29.474559m395.376719-26.924649c-198.571793-198.39109-520.442815-198.39109-718.954374 0-198.531637 198.371012-198.531637 520.442815 0 718.954374 198.511559 198.531637 520.503049 198.39109 718.954374 0 198.531637-198.371012 198.531637-520.583361 0-718.954374" p-id="6997" fill="#d81e06"></path></svg>