<?xml version="1.0" encoding="utf-8"?>
<!-- Generator: Adobe Illustrator 19.0.0, SVG Export Plug-In . SVG Version: 6.00 Build 0)  -->
<svg version="1.0" id="图层_1" xmlns="http://www.w3.org/2000/svg" xmlns:xlink="http://www.w3.org/1999/xlink" x="0px" y="0px"
	 viewBox="0 0 565 317" style="enable-background:new 0 0 565 317;" xml:space="preserve">
<style type="text/css">
	.st0{fill:#8DC63F;}
	.st1{fill:#D80B8C;}
	.st2{fill:#FFCB05;}
	.st3{fill:none;stroke:#90C841;stroke-width:1.0173;}
</style>
<g id="XMLID_23_">
	<g id="XMLID_24_">
		<path id="XMLID_21_" d="M404.1,211.4h-22.9l9.8,32.8c0,0.1-31.6,0-31.6,0l18.8-41.4h35.7v-19.1h-32v-19.9h32v-19.1h-32v-11.2
			h-24.3v11.2h-30.2v19.1l30.2,0l0,19.9h-32.7v19.1h26.3l-22.9,50.1l0.1,0c-0.4,0.8-0.7,1.7-0.7,2.6c0,1.8,0.6,3.3,1.9,4.5
			c1.3,1.2,2.8,1.8,4.6,1.8c0.1,0,0.2,0,0.4-0.1h82.2L404.1,211.4z"/>
		<path id="XMLID_46_" d="M556.4,155.8V139h-19.5v-5.4h-22.1v5.4H470v-5.4h-22.1v5.4h-20.2v16.8l20.3-0.1v7.7h-18.5V188h0.1v0h9.3
			l0.1,37.7h-9v36.4h123.8l0.1-18c0-12.3-5.9-18.4-17.7-18.4H461l0-26l62.8,0l0,5.9h-58.3v14.7h80.3l0.1-20.4
			c0-6.6-1.8-10.8-5.3-12.4h13.8v-7.6c0-11-3.7-16.5-11.2-16.5h-6.3v-7.6H556.4z M470,155.8l44.9-0.1l-0.1,7.7H470V155.8z
			 M531.7,240.4l0.1,7h-79.5v-7L531.7,240.4z M532.4,185L532.4,185L532.4,185l-71.4,0.1h-9.5v-6l80.9,0V185z"/>
		<path id="XMLID_16_" d="M43.1,133.6H9.1l0.1,129.6h20.2l-0.1-112.5h6.9v83.3l-4.1,0.1v19.2c17.8,1.6,26.7-5.6,26.7-21.8v-39.9
			H45.3c9-5,13.5-12.2,13.5-21.5v-20.1C58.8,138.9,53.6,133.5,43.1,133.6z"/>
		<path id="XMLID_42_" class="st0" d="M301.7,129.1c-9.6,0-17.4,7.8-17.4,17.4c0,9.6,7.8,17.4,17.4,17.4c9.6,0,17.4-7.8,17.4-17.4
			C319.1,137,311.3,129.1,301.7,129.1z M301.7,152.4c-3.2,0-5.8-2.6-5.8-5.8c0-3.2,2.6-5.8,5.8-5.8c3.2,0,5.8,2.6,5.8,5.8
			C307.5,149.8,304.9,152.4,301.7,152.4z"/>
		<g id="XMLID_36_">
			<path id="XMLID_39_" class="st1" d="M161.1,8.2c-31.1,0-56.2,25.2-56.2,56.2c0,31.1,25.2,56.2,56.2,56.2s56.2-25.2,56.2-56.2
				C217.3,33.4,192.2,8.2,161.1,8.2z M161.1,101.3c-20.3,0-36.8-16.5-36.8-36.8s16.5-36.8,36.8-36.8c20.3,0,36.8,16.5,36.8,36.8
				S181.4,101.3,161.1,101.3z"/>
			<path id="XMLID_11_" class="st1" d="M147.3,52.7c0,2.4-1.9,4.4-4.3,4.4c-2.4,0-4.4-2-4.4-4.4c0-2.4,2-4.3,4.4-4.3
				C145.4,48.4,147.3,50.3,147.3,52.7z"/>
			<path id="XMLID_10_" class="st1" d="M182.4,52.7c0,2.4-2,4.4-4.4,4.4c-2.4,0-4.3-2-4.3-4.4c0-2.4,2-4.3,4.3-4.3
				C180.5,48.4,182.4,50.3,182.4,52.7z"/>
		</g>
		<g id="XMLID_30_">
			<path id="XMLID_33_" class="st2" d="M296.9,60.2c-8.2-7.7-17.7-11.6-28.5-11.6c-11.8,0-21.7,3.9-29.8,11.6
				c-8.1,7.7-12.2,17-12.2,27.9c0,11.8,4.1,21.5,12.2,29.2c8.2,7.7,18.1,11.6,29.8,11.6c10.9,0,20.4-3.8,28.5-11.6
				c8.1-7.7,12.3-17.4,12.3-29.2C309.2,77.2,305.1,67.9,296.9,60.2z M284.5,105.1c-4.7,4.5-10.2,6.7-16.4,6.7
				c-6.8,0-12.5-2.2-17.2-6.7c-4.7-4.4-7-10-7-16.8c0-6.2,2.3-11.6,7-16c4.7-4.5,10.4-6.7,17.2-6.7c6.3,0,11.7,2.2,16.4,6.7
				c4.7,4.4,7,9.8,7,16C291.6,95.1,289.2,100.7,284.5,105.1z"/>
			<path id="XMLID_7_" class="st2" d="M260.7,81.7c0,1.7-1.4,3.1-3.1,3.1c-1.7,0-3.2-1.4-3.2-3.1c0-1.7,1.4-3.1,3.2-3.1
				C259.3,78.6,260.7,80,260.7,81.7z"/>
			<path id="XMLID_6_" class="st2" d="M281.7,81.7c0,1.7-1.4,3.1-3.1,3.1c-1.7,0-3.2-1.4-3.2-3.1c0-1.7,1.4-3.1,3.2-3.1
				C280.3,78.6,281.7,80,281.7,81.7z"/>
		</g>
		<path id="XMLID_5_" d="M294.9,170.1c1.9,10.1,2.9,20.6,2.9,31.3c0,21.2-4,41.5-11.2,60.2h21.4c6.4-18.9,9.9-39.1,9.9-60.2
			c0-10.7-0.9-21.1-2.6-31.3H294.9z"/>
		<path id="XMLID_4_" d="M280.2,261.6c2.3-5.9,4.2-11.9,5.8-18.1l-38.1,0v-110h-22.1v109.1c0,12.6,5.4,19,16.1,19.1L280.2,261.6z"/>
		<path id="XMLID_3_" class="st3" d="M154.4,229.4"/>
		<path id="XMLID_2_" d="M190.1,133.4H168l-0.3,59.1c0,3.9-0.2,8-0.5,12.3c0,0.1-0.1,0.3-0.1,0.4l0,0.3c-1.6,8.2-5.5,15.7-10.8,21.8
			c-0.6,0.6-1.1,1.2-1.7,1.8l-0.2,0.2c-3.1,3.2-6.9,5.7-11.1,7.4V260c13.4-3.1,25-11,32.7-21.9l0.5-0.3c5.6-8.2,9.9-17.7,12.8-28.6
			c0.7-5.8,1.1-11.7,1.1-17.7L190.1,133.4z"/>
		<path id="XMLID_1_" d="M136.1,134.5h-20h-1.6H80.3l0,0.1c-8.4,0.2-15.2,6.9-15.7,15.2l-0.1,0l-0.1,89.6l31.8,0c0.3,0,0.6,0,1,0
			c1.8-0.4,3.7-0.7,5.6-1.1c4.9-1.9,7.4-6.4,7.4-13.4v-71.1H93.3l-0.1,69.5l-11.7-0.1V149l33,0l0,91.3c-39.3,4.3-75.4,19-105.7,41.2
			V310c33.3-29.2,76.6-47.3,124-48.7v0c0.1,0,0.1,0,0.2,0c0.9,0,1.9,0,2.9-0.1v-7.1c0.1,0,0.1,0,0.2,0V134.5z"/>
	</g>
</g>
<g id="XMLID_95_">
</g>
<g id="XMLID_96_">
</g>
<g id="XMLID_97_">
</g>
<g id="XMLID_98_">
</g>
<g id="XMLID_99_">
</g>
<g id="XMLID_100_">
</g>
</svg>
